<?xml version="1.0" encoding="iso-8859-1"?>
<!-- Generator: Adobe Illustrator 18.0.0, SVG Export Plug-In . SVG Version: 6.00 Build 0)  -->
<!DOCTYPE svg PUBLIC "-//W3C//DTD SVG 1.1//EN" "http://www.w3.org/Graphics/SVG/1.1/DTD/svg11.dtd">
<svg version="1.1" id="_x33_" xmlns="http://www.w3.org/2000/svg" xmlns:xlink="http://www.w3.org/1999/xlink" x="0px" y="0px"
	 viewBox="0 0 512 512" style="enable-background:new 0 0 512 512;" xml:space="preserve">
<g>
	<rect style="fill:#FAF2AF;" width="512" height="512"/>
	<polygon style="opacity:0.1;fill:#231815;" points="512,124.21 512,512 287.745,512 219.8,444.055 252.67,325.58 73.113,146.02 
		84.275,134.91 91.29,127.845 53.505,90.01 64.615,78.845 75.775,67.685 123.597,115.505 130.407,108.645 174.797,153.035 
		180.685,147.145 191.845,135.985 280.625,224.765 285.03,208.895 442.01,130.405 454.655,66.865 	"/>
	<g>
		<path style="fill:#C29768;" d="M459.55,71.795V71.8c-1.54-7.475-8.855-12.285-16.335-10.745c-7.47,1.535-12.285,8.85-10.74,16.325
			c1.315,6.4,1.895,11.985,1.895,16.854c-0.04,9.65-2.11,16.341-5.705,22.155c-3.605,5.8-9.13,10.965-17.055,15.89
			c-3.4,2.145-7.3,4.175-11.51,6.165v-25.99c0-6.735-5.46-12.2-12.195-12.2c-6.74,0-12.195,5.465-12.195,12.2v35.77
			c-10.305,3.645-21.645,7.295-33.775,11.2c-0.675,0.22-1.255,0.475-1.915,0.7V138.72c0-6.735-5.465-12.195-12.195-12.195
			c-6.735,0-12.2,5.46-12.2,12.195v32.545c-14.955,8.98-24.995,19.795-31.06,30.185c-3.27,5.555-5.44,10.845-6.925,15.605
			c-7.84,0-15.75,0-21.64,0c-5.89,0-13.8,0-21.64,0c-1.485-4.76-3.655-10.05-6.925-15.605c-6.065-10.39-16.105-21.205-31.065-30.185
			V138.72c0-6.735-5.46-12.195-12.195-12.195c-6.733,0-12.195,5.46-12.195,12.195v21.405c-0.66-0.225-1.24-0.48-1.915-0.7
			c-12.13-3.905-23.47-7.555-33.775-11.2v-35.77c0-6.735-5.455-12.2-12.195-12.2c-6.732,0-12.195,5.465-12.195,12.2v25.99
			c-4.21-1.99-8.108-4.02-11.515-6.165c-7.922-4.925-13.45-10.09-17.055-15.89c-3.588-5.815-5.66-12.505-5.7-22.155
			c0-4.87,0.58-10.454,1.897-16.854c1.54-7.475-3.272-14.79-10.742-16.325c-7.48-1.54-14.79,3.27-16.333,10.745v-0.005
			c-1.635,7.93-2.47,15.385-2.47,22.44c-0.048,13.905,3.39,26.435,9.885,36.785c4.835,7.76,11.205,14.21,18.415,19.62
			c10.845,8.13,23.594,14.12,37.62,19.561c14.035,5.42,29.415,10.25,45.638,15.525c25.055,8.235,36.19,19.975,42.09,29.79
			c0.325,0.55,0.575,1.08,0.87,1.62c-4.425,0.47-12.47,3.04-18.76,8.07c-0.87-0.37-1.74-0.74-2.69-1.055
			c-19.908-6.625-47.015-14.535-57.813-17.05c-12.535-2.925-24.2,4.955-15.165,23.69c8.728,18.105,19.895,40.75,46.44,47.385
			c4.23,1.06,8.318,1.595,12.24,1.815c-2.573,13.345-4.79,25.18-5.235,27.85c-2.145,12.885,5.083,23.375,9.82,32.185
			c3.127,5.82,24.433,58.96,27.607,65.955c2.23,4.9,7.625,15.18,7.625,15.18c0,1.42,0,2.505,0,3.445c0,0.34,0,0.715,0,1
			c0,5.08,2.54,20.325,17.785,20.325c15.24,0,29.645,0,29.645,0s14.405,0,29.645,0c15.245,0,17.785-15.245,17.785-20.325
			c0-0.285,0-0.66,0-1c0-0.94,0-2.025,0-3.445c0,0,5.395-10.28,7.625-15.18c3.175-6.995,24.48-60.135,27.605-65.955
			c4.74-8.81,11.97-19.3,9.825-32.185c-0.445-2.67-2.665-14.505-5.235-27.85c3.92-0.22,8.005-0.755,12.235-1.815
			c26.545-6.635,37.715-29.28,46.445-47.385c9.03-18.735-2.63-26.615-15.17-23.69c-10.8,2.515-37.905,10.425-57.81,17.05
			c-0.95,0.315-1.825,0.685-2.695,1.055c-6.285-5.03-14.33-7.6-18.755-8.07c0.295-0.54,0.545-1.07,0.87-1.62
			c5.9-9.814,17.03-21.555,42.09-29.79c16.22-5.275,31.605-10.105,45.64-15.525c14.025-5.44,26.77-11.43,37.62-19.561
			c7.205-5.41,13.575-11.86,18.41-19.62c6.495-10.35,9.935-22.88,9.885-36.785C462.015,87.18,461.185,79.725,459.55,71.795z"/>
		<g>
			<g>
				<path style="fill:#DEB98D;" d="M227.435,201.45c-6.065-10.39-16.105-21.205-31.065-30.185V138.72
					c0-6.735-5.46-12.195-12.195-12.195c-6.733,0-12.195,5.46-12.195,12.195v21.405c-0.66-0.225-1.24-0.48-1.915-0.7
					c-12.13-3.905-23.47-7.555-33.775-11.2v-35.77c0-6.735-5.455-12.2-12.195-12.2c-6.732,0-12.195,5.465-12.195,12.2v25.99
					c-4.21-1.99-8.108-4.02-11.515-6.165c-7.922-4.925-13.45-10.09-17.055-15.89c-3.588-5.815-5.66-12.505-5.7-22.155
					c0-4.87,0.58-10.454,1.897-16.854c1.54-7.475-3.272-14.79-10.742-16.325c-7.48-1.54-14.79,3.27-16.333,10.745v-0.005
					c-1.635,7.93-2.47,15.385-2.47,22.44c-0.048,13.905,3.39,26.435,9.885,36.785c4.835,7.76,11.205,14.21,18.415,19.62
					c10.845,8.13,23.594,14.12,37.62,19.561c14.035,5.42,29.415,10.25,45.638,15.525c25.055,8.235,36.19,19.975,42.09,29.79
					c5.835,9.83,6.15,18.516,6.135,19.935v0.2h0.015c-0.34,7.54,5.44,13.99,13.01,14.42c7.615,0.435,14.15-5.39,14.585-13.015
					c0.01-0.24,0.035-0.785,0.035-1.605C237.405,230.76,236.605,217.03,227.435,201.45z"/>
				<path style="fill:#D2AB76;" d="M284.565,201.45c6.065-10.39,16.105-21.205,31.06-30.185V138.72
					c0-6.735,5.465-12.195,12.2-12.195c6.73,0,12.195,5.46,12.195,12.195v21.405c0.66-0.225,1.24-0.48,1.915-0.7
					c12.13-3.905,23.47-7.555,33.775-11.2v-35.77c0-6.735,5.455-12.2,12.195-12.2c6.735,0,12.195,5.465,12.195,12.2v25.99
					c4.21-1.99,8.11-4.02,11.51-6.165c7.925-4.925,13.45-10.09,17.055-15.89c3.595-5.815,5.665-12.505,5.705-22.155
					c0-4.87-0.58-10.454-1.895-16.854c-1.545-7.475,3.27-14.79,10.74-16.325c7.48-1.54,14.795,3.27,16.335,10.745v-0.005
					c1.635,7.93,2.465,15.385,2.465,22.44c0.05,13.905-3.39,26.435-9.885,36.785c-4.835,7.76-11.205,14.21-18.41,19.62
					c-10.85,8.13-23.595,14.12-37.62,19.561c-14.035,5.42-29.42,10.25-45.64,15.525c-25.06,8.235-36.19,19.975-42.09,29.79
					c-5.835,9.83-6.15,18.516-6.135,19.935v0.2h-0.015c0.341,7.54-5.44,13.99-13.01,14.42c-7.625,0.435-14.15-5.39-14.585-13.015
					c-0.01-0.24-0.035-0.785-0.035-1.605C274.595,230.76,275.395,217.03,284.565,201.45z"/>
			</g>
			<g>
				<g>
					<path style="fill:#BC915A;" d="M204.84,258.28c0-8.54-1.895-27.49-21.79-34.13c-19.908-6.625-47.015-14.535-57.813-17.05
						c-12.535-2.925-24.2,4.955-15.165,23.69c8.728,18.105,19.895,40.75,46.44,47.385c26.538,6.64,48.328-5.68,48.328-5.68V258.28z"
						/>
					<path style="fill:#D2AB76;" d="M172.59,263.875c-4.135,0-8.215-0.495-12.138-1.475c-13.818-3.455-22.035-13.105-29.285-26.07
						c-2.2-3.92,1.915-10.405,7.297-8.875c11.91,3.39,26.875,7.94,39.438,12.13c2.923,0.97,10.677,3.56,10.677,18.695v3.235
						c-4.195,1.23-9.74,2.36-15.985,2.36C172.595,263.875,172.595,263.875,172.59,263.875z"/>
				</g>
				<g>
					<path style="fill:#B58858;" d="M307.16,258.28c0-8.54,1.895-27.49,21.79-34.13c19.905-6.625,47.01-14.535,57.81-17.05
						c12.54-2.925,24.2,4.955,15.17,23.69c-8.73,18.105-19.9,40.75-46.445,47.385c-26.535,6.64-48.325-5.68-48.325-5.68V258.28z"/>
					<path style="fill:#D2AB76;" d="M339.41,263.875c4.135,0,8.215-0.495,12.14-1.475c13.815-3.455,22.03-13.105,29.28-26.07
						c2.2-3.92-1.91-10.405-7.295-8.875c-11.915,3.39-26.875,7.94-39.44,12.13c-2.92,0.97-10.675,3.56-10.675,18.695v3.235
						c4.195,1.23,9.74,2.36,15.98,2.36C339.4,263.875,339.4,263.875,339.41,263.875z"/>
				</g>
			</g>
			<g>
				<path style="fill:#C29768;" d="M256,217.055c-15.245,0-44.045,0-50.14,0c-6.1,0-24.9,6.095-28.457,20.32
					c-2.61,10.46-12.868,64.37-13.885,70.465c-2.145,12.885,5.083,23.375,9.82,32.185c3.127,5.82,24.433,58.96,27.607,65.955
					c2.23,4.9,7.625,15.18,7.625,15.18c0,15.88,0-0.64,0,4.445c0,5.08,2.54,20.325,17.785,20.325c15.24,0,29.645,0,29.645,0V217.055
					z"/>
				<path style="fill:#BC915A;" d="M256,217.055c15.245,0,44.045,0,50.14,0c6.1,0,24.895,6.095,28.455,20.32
					c2.61,10.46,12.87,64.37,13.89,70.465c2.145,12.885-5.085,23.375-9.825,32.185c-3.125,5.82-24.43,58.96-27.605,65.955
					c-2.23,4.9-7.625,15.18-7.625,15.18c0,15.88,0-0.64,0,4.445c0,5.08-2.54,20.325-17.785,20.325c-15.24,0-29.645,0-29.645,0
					V217.055z"/>
			</g>
			<path style="fill:#906235;" d="M283.95,408.66c0,11.705-9.48,21.18-21.17,21.18h-13.56c-11.69,0-21.17-9.475-21.17-21.18l0,0
				c0-11.685,9.48-21.165,21.17-21.165h13.56C274.47,387.495,283.95,396.975,283.95,408.66L283.95,408.66z"/>
			<g>
				<path style="fill:#906235;" d="M188.41,305.515h-15.692l5.077,6.89c-0.657,1.455-1.035,3.055-1.035,4.75
					c0,6.425,5.215,11.645,11.65,11.645c6.42,0,11.635-5.22,11.635-11.645C200.045,310.73,194.83,305.515,188.41,305.515z"/>
				<path style="fill:#906235;" d="M339.285,305.515H323.59c-6.42,0-11.635,5.215-11.635,11.64c0,6.425,5.215,11.645,11.635,11.645
					c6.435,0,11.65-5.22,11.65-11.645c0-1.695-0.38-3.295-1.035-4.75L339.285,305.515z"/>
			</g>
		</g>
	</g>
</g>
</svg>
