<?xml version="1.0" encoding="iso-8859-1"?>
<!-- Generator: Adobe Illustrator 18.0.0, SVG Export Plug-In . SVG Version: 6.00 Build 0)  -->
<!DOCTYPE svg PUBLIC "-//W3C//DTD SVG 1.1//EN" "http://www.w3.org/Graphics/SVG/1.1/DTD/svg11.dtd">
<svg version="1.1" id="_x32_" xmlns="http://www.w3.org/2000/svg" xmlns:xlink="http://www.w3.org/1999/xlink" x="0px" y="0px"
	 viewBox="0 0 512 512" style="enable-background:new 0 0 512 512;" xml:space="preserve">
<g>
	<rect style="fill:#F6B597;" width="512" height="512"/>
	<path style="opacity:0.1;fill:#040000;" d="M512,190.669V510.31H260.557l-88.013-88.013c0.051-0.102,0.102-0.153,0.153-0.256
		c0.41-0.717,0.871-1.383,1.383-2.048c5.888-8.192,15.565-14.233,15.565-14.233v-28.058
		c-54.477-25.805-92.211-81.305-92.211-145.664c0-15.514,2.201-30.464,6.246-44.646c-0.358-0.205-0.666-0.41-1.024-0.614
		c-17.203-10.957-28.672-30.157-28.672-52.07c0-0.102,0.051-0.256,0.051-0.358c0.102-22.938,12.749-42.906,31.437-53.453
		c8.96-5.069,19.302-7.987,30.362-7.987c14.285,0,27.392,4.864,37.837,13.005c2.202,1.69,4.25,3.533,6.195,5.53
		c23.245-13.056,50.073-20.48,78.643-20.48c27.29,0,52.941,6.759,75.418,18.739c1.382-1.331,2.867-2.611,4.403-3.789
		c10.445-8.141,23.552-13.005,37.837-13.005c7.885,0,15.36,1.485,22.272,4.198l35.43,35.43c0,0.051,0.051,0.051,0.051,0.103
		L512,190.669z"/>
	<g>
		<path style="fill:#EFECE7;" d="M419.584,232.038c0,6.4-0.358,12.697-1.075,18.944v0.205c-1.28,10.24-3.43,20.224-6.503,29.85
			c-0.614,1.894-1.229,3.84-1.945,5.734c-0.615,1.894-1.383,3.789-2.151,5.632c-0.768,1.843-1.536,3.686-2.355,5.53
			c-0.819,1.843-1.69,3.635-2.56,5.427c-0.871,1.792-1.792,3.584-2.765,5.325c-0.922,1.741-1.894,3.482-2.918,5.171
			c-1.024,1.741-2.048,3.43-3.123,5.069c-1.075,1.69-2.202,3.328-3.328,4.967c-1.127,1.638-2.304,3.226-3.482,4.813
			c-1.024,1.331-1.997,2.662-3.021,3.942c-1.434,1.792-2.867,3.533-4.454,5.274c-3.891,4.506-8.038,8.755-12.442,12.749
			c-1.434,1.331-2.918,2.662-4.403,3.942c-3.021,2.56-6.144,5.017-9.318,7.373c-1.587,1.177-3.226,2.304-4.864,3.43
			c-3.277,2.202-6.656,4.301-10.138,6.298c-3.43,1.997-6.963,3.84-10.547,5.581c-3.635,1.689-7.322,3.328-11.059,4.762
			c-0.41,0.205-0.768,0.307-1.126,0.461c-0.358,0.154-0.768,0.307-1.126,0.461h-0.051c-9.011,3.379-18.381,5.939-28.058,7.629
			c-9.165,1.638-18.637,2.509-28.262,2.509c-2.97,0-5.939-0.102-8.909-0.256c-4.659-0.256-9.216-0.717-13.773-1.383
			c-1.434-0.153-2.867-0.409-4.301-0.666c-1.792-0.256-3.584-0.614-5.376-0.972c-1.843-0.359-3.686-0.768-5.529-1.229
			c-0.205-0.051-0.461-0.102-0.666-0.153c-1.229-0.307-2.509-0.614-3.738-0.973c-1.28-0.307-2.509-0.666-3.738-1.075
			c-1.485-0.409-2.97-0.87-4.403-1.382c-1.331-0.41-2.611-0.871-3.891-1.331c-1.741-0.563-3.43-1.229-5.12-1.894
			c-3.174-1.28-6.349-2.663-9.421-4.096c-54.477-25.805-92.211-81.305-92.211-145.664c0-15.514,2.201-30.464,6.246-44.646
			c0.154-0.512,0.307-1.024,0.461-1.536c4.096-13.721,9.984-26.675,17.408-38.554c5.99-9.728,13.005-18.688,20.89-26.88l0.051-0.051
			c3.123-3.277,6.349-6.4,9.779-9.318c8.448-7.475,17.715-14.029,27.597-19.61c23.245-13.056,50.073-20.48,78.643-20.48
			c27.29,0,52.941,6.759,75.418,18.739c7.782,4.096,15.155,8.807,22.067,14.08c0,0,0,0.051,0.051,0.051
			c6.247,4.813,12.134,9.984,17.664,15.719h0.051c0,0,0.051,0,0.051,0.051c7.27,7.424,13.824,15.616,19.507,24.371
			c0.358,0.461,0.666,0.922,0.922,1.383c7.783,12.083,13.926,25.292,18.227,39.322c0.41,1.177,0.717,2.355,1.075,3.533
			c0.973,3.481,1.843,7.014,2.611,10.598C418.406,209.51,419.584,220.621,419.584,232.038z"/>
		<path style="fill:#E1D9D2;" d="M419.61,232.029c0,69.17-43.57,128.155-104.755,150.94l-86.325-86.325l19.61-96.41l127.13-50.33
			l38.295,38.3C417.511,202.129,419.61,216.824,419.61,232.029z"/>
		<path style="fill:#FFFFFF;" d="M317.125,356.704v49.06c0,0,11.29,7.055,16.935,16.235c4.235,6.35,1.415,11.29-6.345,9.17
			c0.7,2.12-0.03,5.81-4.94,6.35c-12.705,1.41-35.989-7.76-35.989-23.99c0-10.47,0-35.895,0-52.635
			C297.995,365.949,309.56,362.519,317.125,356.704z"/>
		<g>
			<path style="fill:#EED5B1;" d="M173.67,85.913c-10.752,6.042-17.408,16.077-21.402,25.139c-1.946,4.249-3.277,8.294-4.198,11.622
				c-0.205-0.153-0.358-0.205-0.512-0.256c-0.154-0.051-0.307-0.153-0.461-0.205c-0.461-0.256-0.922-0.461-1.382-0.666
				c-1.075-0.512-2.099-0.922-3.174-1.177c-0.051-0.051-0.051,0-0.051,0c-0.768-0.256-1.536-0.41-2.253-0.512
				c-0.922-0.256-1.894-0.358-2.816-0.358c-0.922-0.102-1.843-0.102-2.765,0c-0.768,0-1.587,0.103-2.304,0.307
				c-0.307,0-0.614,0.051-0.922,0.154c-0.614,0.103-1.229,0.307-1.792,0.512c-0.614,0.154-1.229,0.41-1.792,0.666
				c-0.922,0.41-1.792,0.87-2.611,1.382c-14.746-15.616-18.739-32.973-19.763-41.626c8.96-5.069,19.302-7.987,30.362-7.987
				C150.118,72.909,163.226,77.773,173.67,85.913z"/>
			<path style="fill:#D5C7B0;" d="M122.829,124.262c-7.066,5.939-7.066,15.821-3.43,20.941c-18.944,2.714-35.072-3.84-45.363-10.854
				c0.102-22.938,12.749-42.906,31.437-53.453c1.024,8.653,5.018,26.01,19.763,41.626
				C124.416,123.033,123.597,123.597,122.829,124.262z"/>
			<path style="fill:#D5C7B0;" d="M197.632,134.707c0,0.921,0,1.792-0.051,2.713c-0.154,3.021-0.512,5.939-1.075,8.909v0.051
				c0,0.051,0,0.051,0,0.051v0.051c-1.946-0.307-3.891-0.563-5.837-0.819c-0.103-0.051-0.205-0.051-0.307,0
				c-1.894-0.205-3.789-0.307-5.683-0.41h-0.051c-7.27-0.358-14.029,0.205-19.61,1.485h-0.051v-0.051
				c-0.102-0.512-0.205-0.922-0.256-1.433c-0.563-2.509-1.382-4.915-2.406-7.117c-0.307-0.717-0.666-1.485-1.075-2.15
				c-0.819-1.485-1.741-2.918-2.765-4.25c-0.512-0.717-1.075-1.383-1.639-2.048h-0.051c-0.247-0.279-0.508-0.511-0.756-0.772
				c-0.846-0.9-1.727-1.751-2.651-2.536c-0.344-0.298-0.683-0.614-1.036-0.889c-1.372-1.067-2.794-2.036-4.262-2.818
				c0.922-3.328,2.253-7.373,4.198-11.622c3.994-9.063,10.65-19.098,21.402-25.139c2.202,1.69,4.25,3.533,6.195,5.53
				c6.042,6.093,10.803,13.414,13.875,21.606C196.25,119.808,197.632,127.078,197.632,134.707z"/>
			<g>
				<path style="fill:#C7BBAB;" d="M109.3,190.474c8.05,3.84,17.025,6.05,26.54,6.05c10.52,0,20.395-2.675,29.06-7.31
					c-2.08-5.71-4.87-9.52-7.555-12.28C146.55,192.014,127.085,196.509,109.3,190.474z"/>
				<path style="fill:#E4CBAA;" d="M196.515,146.454c-11.415-1.905-23-1.73-31.525,0.245c1.415,8.095,0.135,17.375-5.365,27
					c-0.675,1.18-1.515,2.16-2.28,3.235c2.685,2.76,5.475,6.57,7.555,12.28C181.05,180.574,192.941,165.014,196.515,146.454z"/>
			</g>
			<path style="fill:#DCCEB7;" d="M124.116,148.339c1.08-4.865,13.705-20.725,32.72-18.64c-8.485-9.61-21.535-13.52-31.59-7.19
				c0.99,1.045,1.485,1.57,1.485,1.57s-0.495-0.525-1.485-1.57c-0.82,0.515-1.625,1.075-2.4,1.73
				c-7.07,5.965-7.095,15.855-3.44,20.94c1.086-0.155,1.625-0.235,1.625-0.235s-0.54,0.08-1.625,0.235
				C120.616,146.864,122.225,148.024,124.116,148.339z"/>
			<g>
				<path style="fill:#EED5B1;" d="M167.871,167.359c-1.2-0.83-2.68-1.7-4.29-2.58c-0.07,0.205-0.145,0.415-0.215,0.62
					L167.871,167.359z"/>
				<path style="fill:#EED5B1;" d="M163.365,165.399c0.07-0.205,0.145-0.415,0.215-0.62c-4.87-2.655-11.405-5.355-18.47-7.315
					L163.365,165.399z"/>
				<path style="fill:#F5DDB9;" d="M156.835,129.699c-19.015-2.085-31.64,13.775-32.72,18.64l0.635,6.34
					c6.585-0.265,13.685,0.935,20.36,2.785c7.065,1.96,13.6,4.66,18.47,7.315C168.115,150.739,164.215,138.059,156.835,129.699z"/>
			</g>
			<g>
				<path style="fill:#EED5B1;" d="M124.723,154.675c1.024,12.902-9.216,24.064-20.582,31.181c-0.512,0.307-0.973,0.614-1.485,0.922
					c-17.203-10.957-28.672-30.157-28.672-52.07c0-0.102,0.051-0.256,0.051-0.358c10.291,7.014,26.419,13.568,45.363,10.854
					c0.614,0.87,1.331,1.587,2.15,2.099c0.358,0.256,0.768,0.512,1.177,0.615c0.461,0.256,0.922,0.358,1.382,0.461L124.723,154.675z
					"/>
				<path style="fill:#DCCEB7;" d="M163.379,165.427c-0.256,0.666-0.512,1.382-0.768,2.048c-0.256,0.666-0.563,1.382-0.87,2.048
					c-0.307,0.717-0.666,1.382-1.024,2.099c-0.358,0.717-0.717,1.383-1.127,2.099c-0.102,0.205-0.256,0.41-0.358,0.614
					c-0.563,0.973-1.178,1.843-1.792,2.713c-0.358,0.512-0.717,1.024-1.126,1.485c-7.168,9.113-17.767,13.926-29.082,14.49
					c-3.379,0.205-6.809,0-10.24-0.615c-2.509-0.409-4.915-0.972-7.322-1.792c-0.102,0-0.256-0.051-0.358-0.102
					c-1.946-0.973-3.84-1.997-5.632-3.123c-0.358-0.205-0.666-0.41-1.024-0.614c0.512-0.307,0.973-0.614,1.485-0.922
					c11.366-7.117,21.606-18.278,20.582-31.181h0.051c2.816-0.102,5.734,0.051,8.704,0.41c3.891,0.512,7.833,1.331,11.622,2.406
					l11.929,5.171h0.051L163.379,165.427z"/>
			</g>
		</g>
		<path style="fill:#FFFFFF;" d="M347.326,157.844c-17.755-11.41-34.04-21.15-34.04-21.15l-51.115-12.68h-6.16h-6.16l-51.115,12.68
			c0,0-16.285,9.74-34.04,21.15c-8.51,5.47-16.515,9.415-14.58,14.585c3.23,8.615,22.725,12.845,33.13,2.54c0,0,0,38.4,0,53.94
			c0,15.54,41.825,29.78,41.825,53.09c0,23.165,30.555,22.035,30.94,22.02c0.385,0.015,30.94,1.145,30.94-22.02
			c0-23.31,41.825-37.55,41.825-53.09c0-15.54,0-53.94,0-53.94c10.405,10.305,29.9,6.075,33.13-2.54
			C363.841,167.259,355.835,163.314,347.326,157.844z"/>
		<path style="fill:#564236;" d="M214.345,198.454h-10.86l3.515,4.755c-0.455,1.01-0.715,2.12-0.715,3.29
			c0,4.45,3.61,8.06,8.06,8.06c4.445,0,8.05-3.61,8.05-8.06C222.395,202.059,218.791,198.454,214.345,198.454z"/>
		<g>
			<path style="fill:#EED5B1;" d="M406.528,80.896c-0.154,1.126-0.307,2.355-0.512,3.789c-1.741,9.318-6.4,24.269-19.251,37.837
				c-0.819-0.512-1.689-0.973-2.611-1.382c-0.563-0.256-1.178-0.512-1.792-0.666c-0.563-0.205-1.178-0.409-1.792-0.512
				c-0.256-0.103-0.563-0.154-0.922-0.154c-0.717-0.205-1.536-0.307-2.304-0.307c-1.075-0.102-2.202-0.102-3.328,0.051
				c-0.102-0.051-0.153-0.051-0.256,0h-0.051c-0.205,0.051-0.358,0.051-0.512,0.103c-0.461,0.051-0.973,0.102-1.434,0.205
				c-0.87,0.103-1.741,0.307-2.611,0.614c-0.051,0-0.154,0.051-0.307,0.103c-0.87,0.205-1.689,0.563-2.56,0.973
				c-0.461,0.205-0.922,0.41-1.382,0.666c-0.154,0.051-0.307,0.153-0.461,0.205c-0.154,0.051-0.307,0.103-0.512,0.256
				c-1.434-5.171-3.891-12.083-7.885-18.842c-0.051,0-0.051-0.051-0.051-0.051c-4.045-6.809-9.779-13.414-17.664-17.869
				c10.445-8.141,23.552-13.005,37.837-13.005c7.885,0,15.36,1.485,22.272,4.198C401.254,78.131,403.968,79.411,406.528,80.896z"/>
			<path style="fill:#D5C7B0;" d="M437.975,134.329c-9.984,6.81-25.497,13.21-43.725,11.008c-0.512,0-1.075-0.102-1.638-0.153
				c0.256-0.358,0.512-0.768,0.717-1.229c2.867-5.325,2.406-14.233-4.147-19.712c-0.768-0.666-1.587-1.229-2.407-1.741
				c14.746-15.616,18.739-32.973,19.763-41.625c1.126,0.614,2.202,1.28,3.277,1.997c7.271,4.711,13.517,10.957,18.227,18.227
				C434.289,110.674,437.924,122.092,437.975,134.329z"/>
			<path style="fill:#D5C7B0;" d="M355.981,128.917c-0.248,0.261-0.509,0.493-0.756,0.772h-0.051
				c-0.563,0.666-1.126,1.331-1.638,2.048c-1.024,1.331-1.946,2.765-2.765,4.25c-0.563,0.973-1.075,2.048-1.485,3.123
				c-0.87,1.946-1.485,3.994-1.997,6.144c-0.051,0.512-0.154,0.922-0.256,1.433v0.051h-0.051c-5.581-1.28-12.339-1.843-19.61-1.485
				h-0.051c-1.894,0.103-3.789,0.205-5.683,0.41c-0.103-0.051-0.205-0.051-0.307,0c-1.946,0.256-3.891,0.512-5.837,0.819v-0.051
				c-0.563-2.97-0.922-5.939-1.075-9.011c-0.051-0.921-0.051-1.792-0.051-2.713c0-7.629,1.382-14.95,3.942-21.709
				c3.328-8.96,8.755-16.896,15.616-23.296c1.382-1.331,2.867-2.611,4.403-3.789c7.885,4.454,13.619,11.059,17.664,17.869
				c0,0,0,0.051,0.051,0.051c3.994,6.759,6.451,13.671,7.885,18.842c-1.468,0.782-2.89,1.75-4.262,2.818
				c-0.353,0.275-0.691,0.591-1.036,0.889C357.708,127.166,356.827,128.017,355.981,128.917z"/>
			<g>
				<path style="fill:#C7BBAB;" d="M402.72,190.474c-8.05,3.84-17.025,6.05-26.54,6.05c-10.52,0-20.395-2.675-29.06-7.31
					c2.08-5.71,4.87-9.52,7.555-12.28C365.47,192.014,384.936,196.509,402.72,190.474z"/>
				<path style="fill:#E4CBAA;" d="M315.505,146.454c11.415-1.905,23-1.73,31.525,0.245c-1.415,8.095-0.135,17.375,5.365,27
					c0.675,1.18,1.515,2.16,2.28,3.235c-2.685,2.76-5.475,6.57-7.555,12.28C330.97,180.574,319.081,165.014,315.505,146.454z"/>
			</g>
			<path style="fill:#DCCEB7;" d="M387.906,148.339c-1.08-4.865-13.705-20.725-32.72-18.64c8.485-9.61,21.535-13.52,31.59-7.19
				c-0.99,1.045-1.485,1.57-1.485,1.57s0.495-0.525,1.485-1.57c0.82,0.515,1.625,1.075,2.4,1.73c7.07,5.965,7.095,15.855,3.44,20.94
				c-1.085-0.155-1.625-0.235-1.625-0.235s0.54,0.08,1.625,0.235C391.405,146.864,389.796,148.024,387.906,148.339z"/>
			<g>
				<path style="fill:#EED5B1;" d="M344.151,167.359c1.2-0.83,2.68-1.7,4.289-2.58c0.07,0.205,0.145,0.415,0.215,0.62
					L344.151,167.359z"/>
				<path style="fill:#EED5B1;" d="M348.655,165.399c-0.07-0.205-0.145-0.415-0.215-0.62c4.87-2.655,11.405-5.355,18.47-7.315
					L348.655,165.399z"/>
				<path style="fill:#F5DDB9;" d="M355.185,129.699c19.015-2.085,31.64,13.775,32.72,18.64l-0.635,6.34
					c-6.585-0.265-13.685,0.935-20.36,2.785c-7.065,1.96-13.6,4.66-18.47,7.315C343.905,150.739,347.805,138.059,355.185,129.699z"
					/>
			</g>
			<g>
				<path style="fill:#EED5B1;" d="M387.27,154.679l0.635-6.34c1.89-0.315,3.499-1.475,4.71-3.16
					c18.955,2.735,35.085-3.85,45.375-10.855c0.005,0.125,0.015,0.25,0.015,0.375c0,21.925-11.46,41.115-28.675,52.08
					C397.4,179.689,386.2,168.099,387.27,154.679z"/>
				<path style="fill:#DCCEB7;" d="M366.911,157.464c6.675-1.85,13.775-3.05,20.36-2.785c-1.07,13.42,10.13,25.01,22.06,32.1
					c-2.125,1.355-4.32,2.605-6.61,3.695c-19.05,6.464-40.16,1.01-50.325-16.775c-1.6-2.805-2.81-5.575-3.74-8.3L366.911,157.464z"
					/>
			</g>
		</g>
		<path style="fill:#564236;" d="M297.675,198.454h10.86l-3.515,4.755c0.455,1.01,0.715,2.12,0.715,3.29c0,4.45-3.61,8.06-8.06,8.06
			c-4.445,0-8.05-3.61-8.05-8.06C289.625,202.059,293.23,198.454,297.675,198.454z"/>
		<path style="fill:#564236;" d="M273.706,299.409c0,2.97-7.905,5.37-17.66,5.37c-9.755,0-17.66-2.4-17.66-5.37
			s7.905-5.375,17.66-5.375C265.8,294.034,273.706,296.439,273.706,299.409z"/>
		<path style="fill:#EFECE7;" d="M296.975,101.919c-9.42,0-17.68,4.995-22.265,12.475c-5.045-4.26-11.55-6.83-18.665-6.83
			c-7.11,0-13.625,2.57-18.655,6.83c-4.6-7.48-12.845-12.475-22.275-12.475c-14.42,0-26.11,11.69-26.11,26.11
			c0,14.415,11.69,26.105,26.11,26.105c5.595,0,10.775-1.765,15.025-4.755c4.74,9.51,14.555,16.05,25.905,16.05
			s21.17-6.54,25.905-16.05c4.255,2.99,9.43,4.755,15.025,4.755c14.415,0,26.105-11.69,26.105-26.105
			C323.08,113.609,311.39,101.919,296.975,101.919z"/>
		<path style="fill:#E1D9D2;" d="M249.625,392.849c-17.765-0.975-34.765-4.815-50.535-11.06l19.71-19.71L249.625,392.849z"/>
		<path style="fill:#FFFFFF;" d="M219.955,360.909v52.633c0,13.363-15.872,21.965-28.518,23.808
			c-1.229,0.154-2.407,0.256-3.533,0.307c-1.383,0.051-2.714,0.051-3.943-0.103c-4.915-0.563-5.632-4.249-4.915-6.349
			c-7.68,2.048-10.496-2.662-6.502-8.909c0.051-0.102,0.102-0.153,0.153-0.256c0.41-0.717,0.871-1.383,1.383-2.048
			c5.888-8.192,15.565-14.233,15.565-14.233v-49.05C197.171,362.547,208.742,365.978,219.955,360.909z"/>
	</g>
</g>
</svg>
