<?xml version="1.0" encoding="UTF-8"?>
<svg viewBox="0 0 198 165" xmlns="http://www.w3.org/2000/svg">
<path d="m36 118c-4-1.2-11.333-9.833-14.5-14-0.5 6.833-1.6 21-2 23s2.1667 6.5 3.5 8.5c1.5-2.167 4.9-6.9 6.5-8.5s6.3334-2.333 8.5-2.5c1-1.667 2-5.3-2-6.5z"/>
<ellipse cx="91.5" cy="152" rx="78.5" ry="13" fill="#E2B71C"/>
<ellipse cx="33" cy="33.5" rx="29" ry="29.5" fill="#D2E9EE"/>
<ellipse cx="44" cy="99.5" rx="24" ry="18.5" fill="#FFFEE1"/>
<path d="m28 62h8.5l9 5.5-1-8 4-2c1 0 3.7 0.4 6.5 2 3.5 2 8.5 8 10 11.5 1.2 2.8 2.1667 8.8333 2.5 11.5-0.5 1-1.7 3.5-2.5 5.5-1 2.5-7-1-10-1.5-2.4-0.4-8-4.1667-10.5-6-0.6667-0.3333-2.2-0.6-3 1s-13 5-19 6.5c-0.8333-0.1667-2.5-1.5-2.5-5.5 0-5 1.5-12.5 2.5-15 0.8-2 4-4.5 5.5-5.5z"/>
<ellipse cx="109.5" cy="100.5" rx="22.5" ry="18.5" fill="#FFFEE1"/>
<ellipse cx="120.5" cy="32" rx="30.5" ry="30" fill="#E7D4CA"/>
<path d="m64.5 148.5h-42.5c0.8333-4.5 0-11.5 5-19 2.681-4.021 7.1667-5.5 9.5-5.5 1.8333 1.667 6.2 5.1 9 5.5s3.8333-3.5 4-5.5c2.8333 1.167 9.1 4.3 11.5 7.5s3.3333 12.667 3.5 17z" fill="#4EC8A3"/>
<path d="m132 149h-42c0.8235-4.592 0-11.735 4.9412-19.388 2.6494-4.103 7.0828-5.612 9.3878-5.612 1.812 1.701 3.904 4.592 6.671 5s6.012-2.959 6.176-5c2.8 1.19 8.993 4.388 11.365 7.653s3.294 12.925 3.459 17.347z" fill="#FF70BD"/>
<path d="m37.944 92.089c-1.2252 0-2.2185 0.9933-2.2185 2.2185v3.2546c0 1.2252 0.9933 2.2185 2.2185 2.2185s2.2185-0.9933 2.2185-2.2185v-3.2546c-3e-4 -1.2252-0.9936-2.2185-2.2185-2.2185z"/>
<path d="m56.605 94.307c0-1.2252-0.9932-2.2185-2.2184-2.2185-1.2253 0-2.2185 0.9933-2.2185 2.2185v3.2546c0 1.2252 0.9932 2.2185 2.2185 2.2185 1.2252 0 2.2184-0.9933 2.2184-2.2185v-3.2546z"/>
<path d="m53.067 56.24c2.5649-2.2294 4.7745-4.8591 6.5311-7.8064 0.6273-1.0524 0.2826-2.414-0.7698-3.0413-1.0528-0.6275-2.4141-0.2825-3.0413 0.7699-2.5952 4.3541-6.3312 7.9114-10.804 10.288-1.1122 0.5906-1.8028 1.7409-1.8028 3.0019v4.9678l-4.9452-4.2035c-0.7276-0.6184-1.6913-0.9027-2.6452-0.7805-1.1713 0.1503-2.3625 0.2263-3.5404 0.2263-15.225 0-27.612-12.387-27.612-27.612 0-7.4156 2.8987-14.376 8.1626-19.6 5.2631-5.2231 12.252-8.067 19.665-8.0117 15.128 0.11509 27.419 12.519 27.397 27.652-0.0023 1.7208-0.1642 3.4428-0.4808 5.118-0.2275 1.204 0.5643 2.3644 1.7682 2.5916 1.2051 0.2281 2.3643-0.5642 2.5916-1.7681 0.3671-1.9439 0.5547-3.9411 0.5577-5.9353 0.0248-17.564-14.24-31.961-31.8-32.095-8.6023-0.060358-16.716 3.2369-22.824 9.2991-6.1095 6.0631-9.4739 14.142-9.4739 22.749 0 14.75 10.017 27.202 23.604 30.918-1.7178 2.0028-3.1149 4.2597-4.17 6.7513-1.3679 3.2307-2.0614 6.7844-2.0614 10.562v45.91c0 3.753 1.3551 7.194 3.5984 9.865-0.7968 2.348-1.2338 4.86-1.2338 7.474v5.705c0 1.225 0.9933 2.218 2.2185 2.218h42.207c1.2252 0 2.2185-0.993 2.2185-2.218v-5.705c0-2.615-0.4359-5.129-1.2332-7.477 2.243-2.67 3.5978-6.109 3.5978-9.862v-45.91c0-3.7777-0.6935-7.3314-2.0614-10.562-2.604-6.1507-7.4605-10.902-13.617-13.479zm-31.257 69.951v-19.035c2.7055 5.863 7.7662 10.423 13.962 12.461v1.764c-5.3012 1.749-9.7665 5.349-12.628 10.032-0.8486-1.553-1.3333-3.331-1.3333-5.222zm21.25-9.844c-10.453 0-18.957-8.504-18.957-18.956v-8.0655c3.9783-0.1864 7.7688-0.9891 11.29-2.4206 2.8874-1.1737 5.4121-2.6522 7.6664-4.4932 2.254 1.8413 4.779 3.3195 7.6664 4.4932 3.5221 1.432 7.3123 2.2454 11.29 2.4262v8.0599c-3e-4 10.452-8.504 18.956-18.957 18.956zm2.851 4.261v3.205c0 1.572-1.279 2.851-2.8513 2.851s-2.8514-1.279-2.8514-2.851v-3.205c0.935 0.114 1.886 0.176 2.8514 0.176s1.9164-0.062 2.8513-0.176zm16.034 26.408h-37.77v-3.486c0-7.956 4.9461-14.778 11.924-17.554 0.9235 2.966 3.6946 5.125 6.9608 5.125 3.2635 0 6.0326-2.156 6.9581-5.118 6.9779 2.776 11.927 9.591 11.927 17.547v3.486zm2.3643-20.825c0 1.891-0.4843 3.67-1.3335 5.222-2.8611-4.683-7.3273-8.281-12.628-10.03v-1.766c6.1953-2.038 11.256-6.598 13.961-12.461v19.035zm0-41.26c-0.1976 0-0.3328 0-0.3553 3e-4 -4.1135 0.0373-8.0016-0.6924-11.557-2.1377-3.038-1.235-5.5944-2.8534-7.8152-4.9476-0.4273-0.403-0.9746-0.6045-1.522-0.6045-0.5471 0-1.0947 0.2015-1.5217 0.6042-2.2211 2.0942-4.7775 3.7126-7.8155 4.9476-3.5553 1.4451-7.4342 2.1705-11.559 2.1377-0.0222 0-0.1568-3e-4 -0.3536-3e-4v-4.6506c0-3.1803 0.5755-6.1521 1.7102-8.8324 1.2294-2.904 3.0173-5.424 5.3184-7.5099 1.0562 0.1056 2.1273 0.1603 3.2108 0.1603 1.2166 0 2.4448-0.0701 3.6576-0.2082l6.3036 5.3582c0.6329 0.538 1.4069 0.8155 2.1939 0.8155 0.4847 0 0.9738-0.1054 1.438-0.3199 1.2178-0.563 1.9744-1.7465 1.9744-3.0883v-6.5883c0.3745-0.2085 0.7429-0.4266 1.108-0.6494 6.335 1.7723 11.372 6.1223 13.873 12.03 1.135 2.6806 1.7102 5.6521 1.7102 8.8324v4.6509h5e-4z"/>
<path d="m99.101 92.089c-1.2252 0-2.2185 0.9933-2.2185 2.2185v3.2546c0 1.2252 0.9933 2.2185 2.2185 2.2185 1.2247 0 2.2187-0.9933 2.2187-2.2185v-3.2546c-1e-3 -1.2252-0.994-2.2185-2.2187-2.2185z"/>
<path d="m115.54 92.089c-1.225 0-2.218 0.9933-2.218 2.2185v3.2546c0 1.2252 0.993 2.2185 2.218 2.2185s2.218-0.9933 2.218-2.2185v-3.2546c0-1.2252-0.993-2.2185-2.218-2.2185z"/>
<path d="m151.49 32.049c0-8.6067-3.364-16.686-9.474-22.749-6.109-6.0622-14.203-9.3591-22.824-9.2994-17.56 0.13374-31.825 14.531-31.8 32.095 0.0136 9.555 4.2511 18.438 11.378 24.446-0.5965 0.2841-1.182 0.5897-1.753 0.9199-0.0074 0.0044-0.0151 0.0086-0.0225 0.013-1.1288 0.6542-2.2152 1.4028-3.2301 2.2247-3.0141 2.4419-5.3852 5.4521-7.0477 8.947-1.6871 3.5457-2.5425 7.5205-2.5425 11.813v35.488c0 5.556 2.9677 10.428 7.3984 13.126-3.1505 3.976-5.0337 8.999-5.0337 14.454v5.705c0 1.225 0.9932 2.219 2.2184 2.219h7.0469c1.2252 0 2.2185-0.994 2.2185-2.219s-0.9933-2.218-2.2185-2.218h-4.8287v-3.487c0-7.955 4.9485-14.77 11.927-17.546 0.926 2.962 3.695 5.118 6.958 5.118 3.264 0 6.033-2.157 6.959-5.119 6.978 2.776 11.926 9.592 11.926 17.547v3.487h-22.665c-1.225 0-2.218 0.993-2.218 2.218s0.993 2.219 2.218 2.219h24.883c1.225 0 2.219-0.994 2.219-2.219v-5.705c0-5.456-1.886-10.477-5.037-14.453 4.432-2.697 7.401-7.57 7.401-13.127v-35.488c0-4.2932-0.855-8.2677-2.542-11.813-1.049-2.2052-2.385-4.2139-3.983-6.0122 13.007-4.0819 22.469-16.249 22.469-30.585zm-48.918 89.332c-2.8932 0.955-5.5378 2.459-7.8083 4.392-3.639-1.775-6.1533-5.51-6.1533-9.824v-8.794c2.7054 5.864 7.7661 10.424 13.962 12.462v1.764zm10.139 2.431c0 1.573-1.279 2.852-2.851 2.852s-2.852-1.279-2.852-2.852v-3.205c0.935 0.114 1.886 0.176 2.852 0.176 0.965 0 1.916-0.062 2.851-0.176v3.205zm-2.851-7.465c-10.453 0-18.957-8.504-18.957-18.957v-8.7061c2.6416-1.2557 4.9583-3.6848 6.9016-7.2539 0.3627-0.6661 0.6826-1.3185 0.9616-1.9327 7.2297 7.8706 20.23 9.621 27.915 9.9254 0.719 0.0284 1.413 0.0136 2.136-0.0068v7.9741c0 10.453-8.505 18.957-18.957 18.957zm21.249-0.398c0 4.314-2.514 8.049-6.153 9.824-2.271-1.933-4.915-3.436-7.808-4.39v-1.766c6.195-2.039 11.256-6.598 13.961-12.462v8.794zm0-35.488v4.4695h-0.074c-1.391 0-2.786 0.1159-4.177 0.0594-7.797-0.3089-21.647-2.1738-26.806-11.195-0.3987-0.6962-1.1372-1.1157-1.9251-1.1157-0.092 0-0.1846 0.0059-0.2775 0.0174-0.8889 0.1115-1.6235 0.7483-1.8623 1.6116-0.6784 2.4543-3.2821 8.9159-7.3764 10.541v-4.3878c0-3.6284 0.7107-6.9617 2.1119-9.9074 1.3758-2.8922 3.339-5.3841 5.8344-7.4058 0.8417-0.682 1.7433-1.3021 2.6797-1.8436 0.0065-0.0038 0.013-0.0077 0.0195-0.0115 1.1988-0.6915 2.4728-1.2598 3.7918-1.7025 0.273 0.1625 0.547 0.3225 0.826 0.4776v6.5882c0 1.3418 0.756 2.525 1.974 3.0884 0.464 0.2148 0.953 0.3198 1.438 0.3198 0.787 0 1.561-0.2778 2.194-0.8154l6.304-5.358c1.213 0.1381 2.441 0.2083 3.657 0.2083 1.516 0 3.007-0.1083 4.467-0.3128 2.142 1.901 3.854 4.1716 5.09 6.7679 1.401 2.9445 2.111 6.2779 2.111 9.9065zm-11.668-20.8c-1.178 0-2.37-0.0763-3.541-0.2263-0.954-0.1225-1.917 0.1624-2.645 0.7805l-4.945 4.2035v-4.9677c0-1.2611-0.691-2.4114-1.803-3.002-9.0393-4.8023-14.664-14.137-14.679-24.36-0.0216-15.132 12.269-27.537 27.397-27.652 7.417-0.06893 14.403 2.7889 19.665 8.0117 5.264 5.2237 8.163 12.184 8.163 19.6 0 15.226-12.387 27.612-27.612 27.612z"/>
<ellipse cx="186.5" cy="143" rx="11.5" ry="4" fill="#E2B71C"/>
<path d="m113.71 22.043h-0.393v-2.6629c0.193 0 0.386-1e-4 0.578-2e-4 3.43-0.0018 6.796-0.0036 9.331 0.5692 1.354 0.3058 2.633 0.8067 3.584 1.6908 1.001 0.9309 1.523 2.1774 1.523 3.6947 0 1.4417-0.403 2.6682-1.297 3.6081-0.862 0.9058-2.04 1.3967-3.298 1.6841-2.168 0.4957-5.113 0.488-8.377 0.4795-0.429-0.0011-0.865-0.0022-1.304-0.0022v-2.6629c0.436 0 0.861 8e-4 1.275 0.0015 3.362 0.0061 5.964 0.0109 7.813-0.4118 1.008-0.2304 1.609-0.5531 1.961-0.9233 0.32-0.336 0.564-0.8477 0.564-1.773 0-0.8498-0.265-1.3646-0.673-1.7443-0.459-0.4265-1.214-0.7855-2.357-1.0438-2.235-0.5048-5.328-0.5042-8.93-0.5035z" clip-rule="evenodd" fill-rule="evenodd"/>
<path d="m114.59 22.043c-0.114 1e-4 -0.228 1e-4 -0.343 1e-4v-2.6629c0.187 0 0.375-1e-4 0.563-3e-4 3.227-0.0022 6.448-0.0045 8.883 0.6599 1.32 0.36 2.553 0.9493 3.454 1.9607 0.924 1.0379 1.376 2.3802 1.376 3.9923 0 1.5507-0.353 2.8658-1.166 3.8974-0.809 1.0267-1.943 1.6077-3.179 1.949-1.224 0.338-2.651 0.4686-4.172 0.5225-1.182 0.0418-2.485 0.0383-3.855 0.0346-0.396-0.0011-0.798-0.0021-1.205-0.0021v-2.6629c0.427 0 0.843 0.0011 1.247 0.0022 1.359 0.0035 2.593 0.0068 3.719-0.0331 1.463-0.0517 2.639-0.1746 3.558-0.4281 0.906-0.2502 1.456-0.5987 1.795-1.0296 0.335-0.4259 0.595-1.0967 0.595-2.2499 0-1.0918-0.292-1.7617-0.702-2.221-0.432-0.4858-1.124-0.8788-2.166-1.1631-2.077-0.5668-4.969-0.5663-8.402-0.5657z" clip-rule="evenodd" fill-rule="evenodd"/>
<path d="m122.61 33.162c-2.297-0.7238-5.489-0.7633-9.108-0.7633v-2.6629c3.49 0 7.139 0.0138 9.908 0.8865 1.416 0.4463 2.718 1.1496 3.663 2.2897 0.961 1.1595 1.445 2.6418 1.445 4.4351 0 1.7367-0.389 3.177-1.261 4.2904-0.871 1.112-2.092 1.7284-3.417 2.0798-1.312 0.3477-2.828 0.463-4.42 0.5004-1.035 0.0242-2.163 0.0157-3.328 0.0068-0.619-0.0047-1.248-0.0095-1.879-0.0095v-2.6629c0.681 0 1.333 5e-3 1.96 0.0099 1.135 0.0088 2.188 0.0169 3.185-0.0065 1.54-0.0361 2.801-0.1474 3.799-0.4122 0.985-0.261 1.608-0.6429 2.003-1.1477 0.395-0.5035 0.695-1.2986 0.695-2.6485 0-1.2934-0.338-2.1395-0.833-2.7362-0.51-0.6161-1.296-1.097-2.412-1.4489z" clip-rule="evenodd" fill-rule="evenodd"/>
<path d="m114.24 19.232c0.817 0 1.479 0.6623 1.479 1.4794v22.19c0 0.817-0.662 1.4793-1.479 1.4793s-1.48-0.6623-1.48-1.4793v-22.19c0-0.8171 0.663-1.4794 1.48-1.4794z" clip-rule="evenodd" fill-rule="evenodd"/>
<path d="m30.944 17.309c0.6569-0.0046 1.2522 0.3862 1.5092 0.9908l9.431 22.191c0.3515 0.8272-0.034 1.7827-0.8612 2.1342-0.8271 0.3515-1.7826-0.034-2.1341-0.8612l-7.9033-18.596-7.5847 18.575c-0.3398 0.832-1.2897 1.2311-2.1217 0.8914-0.8321-0.3398-1.2312-1.2897-0.8914-2.1218l9.0612-22.191c0.2483-0.6082 0.838-1.0074 1.495-1.0121z" clip-rule="evenodd" fill-rule="evenodd"/>
<path d="m22.117 36.688c0-0.8988 0.7285-1.6273 1.6273-1.6273h13.684c0.8987 0 1.6273 0.7285 1.6273 1.6273 0 0.8987-0.7286 1.6273-1.6273 1.6273h-13.684c-0.8988 0-1.6273-0.7286-1.6273-1.6273z" clip-rule="evenodd" fill-rule="evenodd"/>
</svg>
